<mxfile host="app.diagrams.net" agent="Mozilla/5.0 (Windows NT 10.0; Win64; x64) AppleWebKit/537.36 (KHTML, like Gecko) Chrome/137.0.0.0 Safari/537.36" version="27.1.4">
  <diagram name="Trang-1" id="st7wC85uRjJ3Hdq2Fsma">
    <mxGraphModel dx="1158" dy="624" grid="1" gridSize="10" guides="1" tooltips="1" connect="1" arrows="1" fold="1" page="1" pageScale="1" pageWidth="827" pageHeight="1169" math="0" shadow="0">
      <root>
        <mxCell id="0" />
        <mxCell id="1" parent="0" />
        <object label="Admin" id="FvOAfYHBT0ZGrhOaYkuo-1">
          <mxCell style="shape=umlActor;verticalLabelPosition=bottom;verticalAlign=top;html=1;outlineConnect=0;" parent="1" vertex="1">
            <mxGeometry x="310" y="200" width="30" height="60" as="geometry" />
          </mxCell>
        </object>
        <mxCell id="FvOAfYHBT0ZGrhOaYkuo-2" value="" style="endArrow=none;dashed=1;html=1;rounded=0;entryX=0.5;entryY=0.5;entryDx=0;entryDy=0;entryPerimeter=0;" parent="1" edge="1">
          <mxGeometry width="50" height="50" relative="1" as="geometry">
            <mxPoint x="324.5" y="380" as="sourcePoint" />
            <mxPoint x="324.5" y="280" as="targetPoint" />
          </mxGeometry>
        </mxCell>
        <mxCell id="FvOAfYHBT0ZGrhOaYkuo-3" value="" style="shape=umlBoundary;whiteSpace=wrap;html=1;fillColor=light-dark(#FFFFCC,#FFFFCC);" parent="1" vertex="1">
          <mxGeometry x="479" y="180" width="100" height="80" as="geometry" />
        </mxCell>
        <mxCell id="FvOAfYHBT0ZGrhOaYkuo-4" value="" style="endArrow=none;dashed=1;html=1;rounded=0;exitX=0.329;exitY=1.005;exitDx=0;exitDy=0;exitPerimeter=0;" parent="1" edge="1" source="DKJt3O48fs2O0gWErGrO-5">
          <mxGeometry width="50" height="50" relative="1" as="geometry">
            <mxPoint x="529.5" y="349.76" as="sourcePoint" />
            <mxPoint x="529.6" y="280" as="targetPoint" />
          </mxGeometry>
        </mxCell>
        <mxCell id="FvOAfYHBT0ZGrhOaYkuo-5" value="" style="ellipse;shape=umlControl;whiteSpace=wrap;html=1;fillColor=light-dark(#FFFFCC,#FFFFCC);" parent="1" vertex="1">
          <mxGeometry x="720" y="180" width="70" height="80" as="geometry" />
        </mxCell>
        <mxCell id="FvOAfYHBT0ZGrhOaYkuo-6" value="" style="endArrow=none;dashed=1;html=1;rounded=0;entryX=0.497;entryY=1.013;entryDx=0;entryDy=0;entryPerimeter=0;" parent="1" edge="1" source="FvOAfYHBT0ZGrhOaYkuo-17">
          <mxGeometry width="50" height="50" relative="1" as="geometry">
            <mxPoint x="754.5" y="370" as="sourcePoint" />
            <mxPoint x="754.5" y="281.03999999999996" as="targetPoint" />
          </mxGeometry>
        </mxCell>
        <mxCell id="FvOAfYHBT0ZGrhOaYkuo-7" value="" style="ellipse;shape=umlEntity;whiteSpace=wrap;html=1;fillColor=light-dark(#FFFFCC,#FFFFCC);" parent="1" vertex="1">
          <mxGeometry x="930" y="180" width="80" height="80" as="geometry" />
        </mxCell>
        <mxCell id="FvOAfYHBT0ZGrhOaYkuo-9" value="" style="endArrow=none;dashed=1;html=1;rounded=0;entryX=0.5;entryY=1;entryDx=0;entryDy=0;exitX=0.91;exitY=1.004;exitDx=0;exitDy=0;exitPerimeter=0;" parent="1" edge="1" source="DKJt3O48fs2O0gWErGrO-5">
          <mxGeometry width="50" height="50" relative="1" as="geometry">
            <mxPoint x="969.5" y="390" as="sourcePoint" />
            <mxPoint x="969.5" y="280" as="targetPoint" />
          </mxGeometry>
        </mxCell>
        <mxCell id="FvOAfYHBT0ZGrhOaYkuo-11" value="" style="endArrow=none;dashed=1;html=1;rounded=0;entryX=0.5;entryY=0.5;entryDx=0;entryDy=0;entryPerimeter=0;exitX=0.058;exitY=1.003;exitDx=0;exitDy=0;exitPerimeter=0;" parent="1" target="FvOAfYHBT0ZGrhOaYkuo-12" edge="1" source="DKJt3O48fs2O0gWErGrO-5">
          <mxGeometry width="50" height="50" relative="1" as="geometry">
            <mxPoint x="325" y="1000" as="sourcePoint" />
            <mxPoint x="325" y="250" as="targetPoint" />
          </mxGeometry>
        </mxCell>
        <mxCell id="FvOAfYHBT0ZGrhOaYkuo-12" value="" style="html=1;points=[[0,0,0,0,5],[0,1,0,0,-5],[1,0,0,0,5],[1,1,0,0,-5]];perimeter=orthogonalPerimeter;outlineConnect=0;targetShapes=umlLifeline;portConstraint=eastwest;newEdgeStyle={&quot;curved&quot;:0,&quot;rounded&quot;:0};" parent="1" vertex="1">
          <mxGeometry x="320" y="330" width="10" height="220" as="geometry" />
        </mxCell>
        <mxCell id="FvOAfYHBT0ZGrhOaYkuo-14" value="" style="html=1;points=[[0,0,0,0,5],[0,1,0,0,-5],[1,0,0,0,5],[1,1,0,0,-5]];perimeter=orthogonalPerimeter;outlineConnect=0;targetShapes=umlLifeline;portConstraint=eastwest;newEdgeStyle={&quot;curved&quot;:0,&quot;rounded&quot;:0};" parent="1" vertex="1">
          <mxGeometry x="524" y="330" width="10" height="210" as="geometry" />
        </mxCell>
        <mxCell id="FvOAfYHBT0ZGrhOaYkuo-16" value="" style="endArrow=none;dashed=1;html=1;rounded=0;entryX=0.497;entryY=1.013;entryDx=0;entryDy=0;entryPerimeter=0;exitX=0.624;exitY=1.005;exitDx=0;exitDy=0;exitPerimeter=0;" parent="1" target="FvOAfYHBT0ZGrhOaYkuo-17" edge="1" source="DKJt3O48fs2O0gWErGrO-5">
          <mxGeometry width="50" height="50" relative="1" as="geometry">
            <mxPoint x="755" y="1000" as="sourcePoint" />
            <mxPoint x="755" y="281" as="targetPoint" />
          </mxGeometry>
        </mxCell>
        <mxCell id="FvOAfYHBT0ZGrhOaYkuo-17" value="" style="html=1;points=[[0,0,0,0,5],[0,1,0,0,-5],[1,0,0,0,5],[1,1,0,0,-5]];perimeter=orthogonalPerimeter;outlineConnect=0;targetShapes=umlLifeline;portConstraint=eastwest;newEdgeStyle={&quot;curved&quot;:0,&quot;rounded&quot;:0};" parent="1" vertex="1">
          <mxGeometry x="750" y="420" width="10" height="100" as="geometry" />
        </mxCell>
        <mxCell id="FvOAfYHBT0ZGrhOaYkuo-86" value="&lt;font style=&quot;vertical-align: inherit;&quot;&gt;&lt;font style=&quot;vertical-align: inherit;&quot;&gt;Chọn1 người dùng trong danh sách&lt;/font&gt;&lt;/font&gt;" style="html=1;verticalAlign=bottom;endArrow=block;curved=0;rounded=0;" parent="1" edge="1">
          <mxGeometry width="80" relative="1" as="geometry">
            <mxPoint x="330" y="350" as="sourcePoint" />
            <mxPoint x="524" y="350" as="targetPoint" />
          </mxGeometry>
        </mxCell>
        <mxCell id="FvOAfYHBT0ZGrhOaYkuo-89" value="Hiển thị các chức năng&amp;nbsp;&lt;div&gt;thao tác với người dùng&lt;/div&gt;" style="html=1;verticalAlign=bottom;endArrow=open;dashed=1;endSize=8;curved=0;rounded=0;" parent="1" edge="1">
          <mxGeometry relative="1" as="geometry">
            <mxPoint x="524" y="390" as="sourcePoint" />
            <mxPoint x="330" y="390" as="targetPoint" />
          </mxGeometry>
        </mxCell>
        <mxCell id="FvOAfYHBT0ZGrhOaYkuo-90" value="Chọn chức năng &quot;Xóa tài khoản&quot;" style="html=1;verticalAlign=bottom;endArrow=block;curved=0;rounded=0;" parent="1" edge="1">
          <mxGeometry width="80" relative="1" as="geometry">
            <mxPoint x="330" y="419.44" as="sourcePoint" />
            <mxPoint x="524" y="419.4400000000002" as="targetPoint" />
          </mxGeometry>
        </mxCell>
        <mxCell id="FvOAfYHBT0ZGrhOaYkuo-91" value="Yêu cầu xóa tài khoản(userId)" style="html=1;verticalAlign=bottom;endArrow=block;curved=0;rounded=0;" parent="1" edge="1">
          <mxGeometry width="80" relative="1" as="geometry">
            <mxPoint x="534" y="440" as="sourcePoint" />
            <mxPoint x="750" y="440.0000000000002" as="targetPoint" />
          </mxGeometry>
        </mxCell>
        <mxCell id="FvOAfYHBT0ZGrhOaYkuo-93" value="Yêu cầu xóa tài khoản(userId)" style="html=1;verticalAlign=bottom;endArrow=block;curved=0;rounded=0;" parent="1" edge="1">
          <mxGeometry width="80" relative="1" as="geometry">
            <mxPoint x="760" y="460" as="sourcePoint" />
            <mxPoint x="965" y="460.0000000000002" as="targetPoint" />
          </mxGeometry>
        </mxCell>
        <mxCell id="DKJt3O48fs2O0gWErGrO-1" value="V_UserManagement" style="text;html=1;align=center;verticalAlign=middle;resizable=0;points=[];autosize=1;strokeColor=none;fillColor=none;" parent="1" vertex="1">
          <mxGeometry x="465" y="260" width="130" height="30" as="geometry" />
        </mxCell>
        <mxCell id="DKJt3O48fs2O0gWErGrO-2" value="&lt;span style=&quot;text-wrap-mode: wrap;&quot;&gt;AccountController&lt;/span&gt;" style="text;html=1;align=center;verticalAlign=middle;resizable=0;points=[];autosize=1;strokeColor=none;fillColor=none;" parent="1" vertex="1">
          <mxGeometry x="695" y="260" width="120" height="30" as="geometry" />
        </mxCell>
        <mxCell id="DKJt3O48fs2O0gWErGrO-3" value="&lt;span style=&quot;text-wrap-mode: wrap;&quot;&gt;Account&lt;/span&gt;" style="text;html=1;align=center;verticalAlign=middle;resizable=0;points=[];autosize=1;strokeColor=none;fillColor=none;" parent="1" vertex="1">
          <mxGeometry x="935" y="260" width="70" height="30" as="geometry" />
        </mxCell>
        <mxCell id="DKJt3O48fs2O0gWErGrO-5" value="Admin xóa tài khoản người dùng" style="shape=umlFrame;whiteSpace=wrap;html=1;pointerEvents=0;width=120;height=30;" parent="1" vertex="1">
          <mxGeometry x="280" y="160" width="760" height="410" as="geometry" />
        </mxCell>
        <mxCell id="jFTTBc30-LOq_TeOkm7p-1" value="" style="html=1;points=[[0,0,0,0,5],[0,1,0,0,-5],[1,0,0,0,5],[1,1,0,0,-5]];perimeter=orthogonalPerimeter;outlineConnect=0;targetShapes=umlLifeline;portConstraint=eastwest;newEdgeStyle={&quot;curved&quot;:0,&quot;rounded&quot;:0};" vertex="1" parent="1">
          <mxGeometry x="965" y="440" width="10" height="50" as="geometry" />
        </mxCell>
        <mxCell id="jFTTBc30-LOq_TeOkm7p-2" value="Kết quả quá trình xóa tài khoản" style="html=1;verticalAlign=bottom;endArrow=open;dashed=1;endSize=8;curved=0;rounded=0;" edge="1" parent="1" target="FvOAfYHBT0ZGrhOaYkuo-17">
          <mxGeometry relative="1" as="geometry">
            <mxPoint x="965" y="490" as="sourcePoint" />
            <mxPoint x="885" y="490" as="targetPoint" />
          </mxGeometry>
        </mxCell>
        <mxCell id="jFTTBc30-LOq_TeOkm7p-3" value="Kết quả quá trình xóa tài khoản" style="html=1;verticalAlign=bottom;endArrow=open;dashed=1;endSize=8;curved=0;rounded=0;" edge="1" parent="1">
          <mxGeometry relative="1" as="geometry">
            <mxPoint x="750" y="518.89" as="sourcePoint" />
            <mxPoint x="534" y="518.89" as="targetPoint" />
          </mxGeometry>
        </mxCell>
        <mxCell id="jFTTBc30-LOq_TeOkm7p-4" value="Hiển thị trạng thái&lt;br&gt;quá trình xóa tài khoản" style="html=1;verticalAlign=bottom;endArrow=open;dashed=1;endSize=8;curved=0;rounded=0;" edge="1" parent="1" source="FvOAfYHBT0ZGrhOaYkuo-14">
          <mxGeometry relative="1" as="geometry">
            <mxPoint x="410" y="540" as="sourcePoint" />
            <mxPoint x="330" y="540" as="targetPoint" />
          </mxGeometry>
        </mxCell>
      </root>
    </mxGraphModel>
  </diagram>
</mxfile>
